# xmcd
#
# Track frame offsets:
#	150
#	16202
#	33140
#	45106
#	57471
#	75823
#	86683
#	100875
#	111801
#	126588
#	144795
#	158119
#	170548
#	186326
#
# Disc length: 2672 seconds
#
# Revision: 1
# Processed by: cddbd v1.5.2PL0 Copyright (c) Steve Scherf et al.
# Submitted via: audiograbber 1.83.01
#
DISCID=a50a6e0e
DTITLE=Nite Sky - Nite Sky 802
DYEAR=2008
DGENRE=Country
TTITLE0=Wait For Tomorrow  - Kelly Hope
TTITLE1=Why Wait  - Gary and Carol Bibb
TTITLE2=I Don´t Tell You Everything  - Dave Wooley
TTITLE3=Mom  - Joe Navrath
TTITLE4=One Life (the Tommy Dean Song)  - Andrew Dean and The Farm Machine
TTITLE5=Angels With One Wing  - The Kentucky Sisters
TTITLE6=Election Infection  - Ron Thompson
TTITLE7=I´ll Take The Blame - Kimberly Bibb-marrs
TTITLE8=Everything You Pray  - Jasun Basilone
TTITLE9=Where Would I Be  - Rhonda Lee
TTITLE10=Inner Cell Phone  - Kris Miller
TTITLE11=Sitting In A Church  - Tim Lovell
TTITLE12=In The Garden  - Andrew Dean and The Farm Machine
TTITLE13=California Girls  - Surf City Allstars With Beach Boy Al Jardine
EXTD=
EXTT0=
EXTT1=
EXTT2=
EXTT3=
EXTT4=
EXTT5=
EXTT6=
EXTT7=
EXTT8=
EXTT9=
EXTT10=
EXTT11=
EXTT12=
EXTT13=
PLAYORDER=
